<mxfile host="app.diagrams.net" modified="2024-02-26T16:08:26.693Z" agent="Mozilla/5.0 (Windows NT 10.0; Win64; x64) AppleWebKit/537.36 (KHTML, like Gecko) Chrome/121.0.0.0 Safari/537.36" etag="mX9B8mW_pnc12VkY1yvR" version="23.1.1" type="device">
  <diagram name="Página-1" id="5_xd5Oc4KuSxivoWNn_E">
    <mxGraphModel dx="1195" dy="650" grid="1" gridSize="10" guides="1" tooltips="1" connect="1" arrows="1" fold="1" page="1" pageScale="1" pageWidth="827" pageHeight="1169" math="0" shadow="0">
      <root>
        <mxCell id="0" />
        <mxCell id="1" parent="0" />
        <mxCell id="ccPn1WkZMxqeKTW8dk22-3" value="&lt;br&gt;a, b, c, d, e, f" style="html=1;strokeWidth=2;shape=manualInput;whiteSpace=wrap;rounded=1;size=26;arcSize=11;strokeColor=#0000FF;" vertex="1" parent="1">
          <mxGeometry x="158" y="360" width="100" height="60" as="geometry" />
        </mxCell>
        <mxCell id="ccPn1WkZMxqeKTW8dk22-4" value="a, b, c, d, e, f, maior = 0;" style="rounded=1;whiteSpace=wrap;html=1;absoluteArcSize=1;arcSize=14;strokeWidth=2;strokeColor=#0000FF;" vertex="1" parent="1">
          <mxGeometry x="158" y="290" width="100" height="50" as="geometry" />
        </mxCell>
        <mxCell id="ccPn1WkZMxqeKTW8dk22-5" value="Início" style="strokeWidth=2;html=1;shape=mxgraph.flowchart.start_1;whiteSpace=wrap;strokeColor=#0000FF;" vertex="1" parent="1">
          <mxGeometry x="173" y="230" width="70" height="30" as="geometry" />
        </mxCell>
        <mxCell id="ccPn1WkZMxqeKTW8dk22-26" value="sim" style="edgeStyle=orthogonalEdgeStyle;rounded=0;orthogonalLoop=1;jettySize=auto;html=1;exitX=1;exitY=0.5;exitDx=0;exitDy=0;exitPerimeter=0;entryX=0;entryY=0.5;entryDx=0;entryDy=0;strokeColor=#0000FF;" edge="1" parent="1" source="ccPn1WkZMxqeKTW8dk22-7" target="ccPn1WkZMxqeKTW8dk22-8">
          <mxGeometry relative="1" as="geometry" />
        </mxCell>
        <mxCell id="ccPn1WkZMxqeKTW8dk22-7" value="a &amp;gt; maior" style="strokeWidth=2;html=1;shape=mxgraph.flowchart.decision;whiteSpace=wrap;strokeColor=#0000FF;" vertex="1" parent="1">
          <mxGeometry x="168.5" y="440" width="79" height="50" as="geometry" />
        </mxCell>
        <mxCell id="ccPn1WkZMxqeKTW8dk22-8" value="maior = a" style="rounded=1;whiteSpace=wrap;html=1;absoluteArcSize=1;arcSize=14;strokeWidth=2;strokeColor=#0000FF;" vertex="1" parent="1">
          <mxGeometry x="289" y="450" width="70" height="30" as="geometry" />
        </mxCell>
        <mxCell id="ccPn1WkZMxqeKTW8dk22-28" value="sim" style="edgeStyle=orthogonalEdgeStyle;rounded=0;orthogonalLoop=1;jettySize=auto;html=1;exitX=1;exitY=0.5;exitDx=0;exitDy=0;exitPerimeter=0;entryX=0;entryY=0.5;entryDx=0;entryDy=0;strokeColor=#0000FF;" edge="1" parent="1" source="ccPn1WkZMxqeKTW8dk22-9" target="ccPn1WkZMxqeKTW8dk22-10">
          <mxGeometry relative="1" as="geometry" />
        </mxCell>
        <mxCell id="ccPn1WkZMxqeKTW8dk22-9" value="b &amp;gt; maior" style="strokeWidth=2;html=1;shape=mxgraph.flowchart.decision;whiteSpace=wrap;strokeColor=#0000FF;" vertex="1" parent="1">
          <mxGeometry x="168.5" y="510" width="79" height="50" as="geometry" />
        </mxCell>
        <mxCell id="ccPn1WkZMxqeKTW8dk22-40" style="edgeStyle=orthogonalEdgeStyle;rounded=0;orthogonalLoop=1;jettySize=auto;html=1;exitX=1;exitY=0.5;exitDx=0;exitDy=0;strokeColor=#0000FF;" edge="1" parent="1" source="ccPn1WkZMxqeKTW8dk22-10">
          <mxGeometry relative="1" as="geometry">
            <mxPoint x="379" y="535.1904761904761" as="targetPoint" />
          </mxGeometry>
        </mxCell>
        <mxCell id="ccPn1WkZMxqeKTW8dk22-10" value="maior = b" style="rounded=1;whiteSpace=wrap;html=1;absoluteArcSize=1;arcSize=14;strokeWidth=2;strokeColor=#0000FF;" vertex="1" parent="1">
          <mxGeometry x="289" y="520" width="70" height="30" as="geometry" />
        </mxCell>
        <mxCell id="ccPn1WkZMxqeKTW8dk22-29" value="sim" style="edgeStyle=orthogonalEdgeStyle;rounded=0;orthogonalLoop=1;jettySize=auto;html=1;exitX=1;exitY=0.5;exitDx=0;exitDy=0;exitPerimeter=0;entryX=0;entryY=0.5;entryDx=0;entryDy=0;strokeColor=#0000FF;" edge="1" parent="1" source="ccPn1WkZMxqeKTW8dk22-11" target="ccPn1WkZMxqeKTW8dk22-12">
          <mxGeometry relative="1" as="geometry" />
        </mxCell>
        <mxCell id="ccPn1WkZMxqeKTW8dk22-11" value="c &amp;gt; maior" style="strokeWidth=2;html=1;shape=mxgraph.flowchart.decision;whiteSpace=wrap;strokeColor=#0000FF;" vertex="1" parent="1">
          <mxGeometry x="168.5" y="580" width="79" height="50" as="geometry" />
        </mxCell>
        <mxCell id="ccPn1WkZMxqeKTW8dk22-41" style="edgeStyle=orthogonalEdgeStyle;rounded=0;orthogonalLoop=1;jettySize=auto;html=1;exitX=1;exitY=0.5;exitDx=0;exitDy=0;strokeColor=#0000FF;" edge="1" parent="1" source="ccPn1WkZMxqeKTW8dk22-12">
          <mxGeometry relative="1" as="geometry">
            <mxPoint x="379" y="605.1904761904761" as="targetPoint" />
          </mxGeometry>
        </mxCell>
        <mxCell id="ccPn1WkZMxqeKTW8dk22-12" value="maior = c" style="rounded=1;whiteSpace=wrap;html=1;absoluteArcSize=1;arcSize=14;strokeWidth=2;strokeColor=#0000FF;" vertex="1" parent="1">
          <mxGeometry x="289" y="590" width="70" height="30" as="geometry" />
        </mxCell>
        <mxCell id="ccPn1WkZMxqeKTW8dk22-32" value="sim" style="edgeStyle=orthogonalEdgeStyle;rounded=0;orthogonalLoop=1;jettySize=auto;html=1;exitX=1;exitY=0.5;exitDx=0;exitDy=0;exitPerimeter=0;entryX=0;entryY=0.5;entryDx=0;entryDy=0;strokeColor=#0000FF;" edge="1" parent="1" source="ccPn1WkZMxqeKTW8dk22-13" target="ccPn1WkZMxqeKTW8dk22-14">
          <mxGeometry relative="1" as="geometry" />
        </mxCell>
        <mxCell id="ccPn1WkZMxqeKTW8dk22-13" value="d &amp;gt; maior" style="strokeWidth=2;html=1;shape=mxgraph.flowchart.decision;whiteSpace=wrap;strokeColor=#0000FF;" vertex="1" parent="1">
          <mxGeometry x="168.5" y="650" width="79" height="50" as="geometry" />
        </mxCell>
        <mxCell id="ccPn1WkZMxqeKTW8dk22-42" style="edgeStyle=orthogonalEdgeStyle;rounded=0;orthogonalLoop=1;jettySize=auto;html=1;exitX=1;exitY=0.5;exitDx=0;exitDy=0;strokeColor=#0000FF;" edge="1" parent="1" source="ccPn1WkZMxqeKTW8dk22-14">
          <mxGeometry relative="1" as="geometry">
            <mxPoint x="379" y="675.1904761904761" as="targetPoint" />
          </mxGeometry>
        </mxCell>
        <mxCell id="ccPn1WkZMxqeKTW8dk22-14" value="maior = d" style="rounded=1;whiteSpace=wrap;html=1;absoluteArcSize=1;arcSize=14;strokeWidth=2;strokeColor=#0000FF;" vertex="1" parent="1">
          <mxGeometry x="289" y="660" width="70" height="30" as="geometry" />
        </mxCell>
        <mxCell id="ccPn1WkZMxqeKTW8dk22-33" value="sim" style="edgeStyle=orthogonalEdgeStyle;rounded=0;orthogonalLoop=1;jettySize=auto;html=1;exitX=1;exitY=0.5;exitDx=0;exitDy=0;exitPerimeter=0;entryX=0;entryY=0.5;entryDx=0;entryDy=0;strokeColor=#0000FF;" edge="1" parent="1" source="ccPn1WkZMxqeKTW8dk22-15" target="ccPn1WkZMxqeKTW8dk22-16">
          <mxGeometry relative="1" as="geometry" />
        </mxCell>
        <mxCell id="ccPn1WkZMxqeKTW8dk22-15" value="e &amp;gt; maior" style="strokeWidth=2;html=1;shape=mxgraph.flowchart.decision;whiteSpace=wrap;strokeColor=#0000FF;" vertex="1" parent="1">
          <mxGeometry x="168.5" y="720" width="79" height="50" as="geometry" />
        </mxCell>
        <mxCell id="ccPn1WkZMxqeKTW8dk22-43" style="edgeStyle=orthogonalEdgeStyle;rounded=0;orthogonalLoop=1;jettySize=auto;html=1;exitX=1;exitY=0.5;exitDx=0;exitDy=0;strokeColor=#0000FF;" edge="1" parent="1" source="ccPn1WkZMxqeKTW8dk22-16">
          <mxGeometry relative="1" as="geometry">
            <mxPoint x="379" y="745.1904761904761" as="targetPoint" />
          </mxGeometry>
        </mxCell>
        <mxCell id="ccPn1WkZMxqeKTW8dk22-16" value="maior = e" style="rounded=1;whiteSpace=wrap;html=1;absoluteArcSize=1;arcSize=14;strokeWidth=2;strokeColor=#0000FF;" vertex="1" parent="1">
          <mxGeometry x="289" y="730" width="70" height="30" as="geometry" />
        </mxCell>
        <mxCell id="ccPn1WkZMxqeKTW8dk22-36" value="sim" style="edgeStyle=orthogonalEdgeStyle;rounded=0;orthogonalLoop=1;jettySize=auto;html=1;exitX=1;exitY=0.5;exitDx=0;exitDy=0;exitPerimeter=0;entryX=0;entryY=0.5;entryDx=0;entryDy=0;strokeColor=#0000FF;" edge="1" parent="1" source="ccPn1WkZMxqeKTW8dk22-17" target="ccPn1WkZMxqeKTW8dk22-18">
          <mxGeometry relative="1" as="geometry" />
        </mxCell>
        <mxCell id="ccPn1WkZMxqeKTW8dk22-17" value="f &amp;gt; maior" style="strokeWidth=2;html=1;shape=mxgraph.flowchart.decision;whiteSpace=wrap;strokeColor=#0000FF;" vertex="1" parent="1">
          <mxGeometry x="168.5" y="790" width="79" height="50" as="geometry" />
        </mxCell>
        <mxCell id="ccPn1WkZMxqeKTW8dk22-44" style="edgeStyle=orthogonalEdgeStyle;rounded=0;orthogonalLoop=1;jettySize=auto;html=1;exitX=1;exitY=0.5;exitDx=0;exitDy=0;strokeColor=#0000FF;" edge="1" parent="1" source="ccPn1WkZMxqeKTW8dk22-18">
          <mxGeometry relative="1" as="geometry">
            <mxPoint x="379" y="815.1904761904761" as="targetPoint" />
          </mxGeometry>
        </mxCell>
        <mxCell id="ccPn1WkZMxqeKTW8dk22-18" value="maior = f" style="rounded=1;whiteSpace=wrap;html=1;absoluteArcSize=1;arcSize=14;strokeWidth=2;strokeColor=#0000FF;" vertex="1" parent="1">
          <mxGeometry x="289" y="800" width="70" height="30" as="geometry" />
        </mxCell>
        <mxCell id="ccPn1WkZMxqeKTW8dk22-19" value="&quot;O maior número é &quot; + maior" style="strokeWidth=2;html=1;shape=mxgraph.flowchart.display;whiteSpace=wrap;strokeColor=#0000FF;" vertex="1" parent="1">
          <mxGeometry x="139" y="860" width="150" height="70" as="geometry" />
        </mxCell>
        <mxCell id="ccPn1WkZMxqeKTW8dk22-22" value="Fim" style="strokeWidth=2;html=1;shape=mxgraph.flowchart.start_1;whiteSpace=wrap;strokeColor=#0000FF;" vertex="1" parent="1">
          <mxGeometry x="188" y="950" width="70" height="30" as="geometry" />
        </mxCell>
        <mxCell id="ccPn1WkZMxqeKTW8dk22-23" style="edgeStyle=orthogonalEdgeStyle;rounded=0;orthogonalLoop=1;jettySize=auto;html=1;exitX=0.5;exitY=1;exitDx=0;exitDy=0;exitPerimeter=0;entryX=0.49;entryY=-0.058;entryDx=0;entryDy=0;entryPerimeter=0;strokeColor=#0000FF;" edge="1" parent="1" source="ccPn1WkZMxqeKTW8dk22-5" target="ccPn1WkZMxqeKTW8dk22-4">
          <mxGeometry relative="1" as="geometry" />
        </mxCell>
        <mxCell id="ccPn1WkZMxqeKTW8dk22-24" style="edgeStyle=orthogonalEdgeStyle;rounded=0;orthogonalLoop=1;jettySize=auto;html=1;exitX=0.5;exitY=1;exitDx=0;exitDy=0;entryX=0.504;entryY=0.213;entryDx=0;entryDy=0;entryPerimeter=0;strokeColor=#0000FF;" edge="1" parent="1" source="ccPn1WkZMxqeKTW8dk22-4" target="ccPn1WkZMxqeKTW8dk22-3">
          <mxGeometry relative="1" as="geometry" />
        </mxCell>
        <mxCell id="ccPn1WkZMxqeKTW8dk22-25" style="edgeStyle=orthogonalEdgeStyle;rounded=0;orthogonalLoop=1;jettySize=auto;html=1;exitX=0.5;exitY=1;exitDx=0;exitDy=0;entryX=0.5;entryY=0;entryDx=0;entryDy=0;entryPerimeter=0;strokeColor=#0000FF;" edge="1" parent="1" source="ccPn1WkZMxqeKTW8dk22-3" target="ccPn1WkZMxqeKTW8dk22-7">
          <mxGeometry relative="1" as="geometry" />
        </mxCell>
        <mxCell id="ccPn1WkZMxqeKTW8dk22-27" style="edgeStyle=orthogonalEdgeStyle;rounded=0;orthogonalLoop=1;jettySize=auto;html=1;exitX=0.5;exitY=1;exitDx=0;exitDy=0;exitPerimeter=0;entryX=0.5;entryY=0;entryDx=0;entryDy=0;entryPerimeter=0;strokeColor=#0000FF;" edge="1" parent="1" source="ccPn1WkZMxqeKTW8dk22-7" target="ccPn1WkZMxqeKTW8dk22-9">
          <mxGeometry relative="1" as="geometry" />
        </mxCell>
        <mxCell id="ccPn1WkZMxqeKTW8dk22-30" style="edgeStyle=orthogonalEdgeStyle;rounded=0;orthogonalLoop=1;jettySize=auto;html=1;exitX=0.5;exitY=1;exitDx=0;exitDy=0;exitPerimeter=0;entryX=0.5;entryY=0;entryDx=0;entryDy=0;entryPerimeter=0;strokeColor=#0000FF;" edge="1" parent="1" source="ccPn1WkZMxqeKTW8dk22-9" target="ccPn1WkZMxqeKTW8dk22-11">
          <mxGeometry relative="1" as="geometry" />
        </mxCell>
        <mxCell id="ccPn1WkZMxqeKTW8dk22-31" style="edgeStyle=orthogonalEdgeStyle;rounded=0;orthogonalLoop=1;jettySize=auto;html=1;exitX=0.5;exitY=1;exitDx=0;exitDy=0;exitPerimeter=0;entryX=0.5;entryY=0;entryDx=0;entryDy=0;entryPerimeter=0;strokeColor=#0000FF;" edge="1" parent="1" source="ccPn1WkZMxqeKTW8dk22-11" target="ccPn1WkZMxqeKTW8dk22-13">
          <mxGeometry relative="1" as="geometry" />
        </mxCell>
        <mxCell id="ccPn1WkZMxqeKTW8dk22-34" style="edgeStyle=orthogonalEdgeStyle;rounded=0;orthogonalLoop=1;jettySize=auto;html=1;exitX=0.5;exitY=1;exitDx=0;exitDy=0;exitPerimeter=0;entryX=0.5;entryY=0;entryDx=0;entryDy=0;entryPerimeter=0;strokeColor=#0000FF;" edge="1" parent="1" source="ccPn1WkZMxqeKTW8dk22-13" target="ccPn1WkZMxqeKTW8dk22-15">
          <mxGeometry relative="1" as="geometry" />
        </mxCell>
        <mxCell id="ccPn1WkZMxqeKTW8dk22-35" style="edgeStyle=orthogonalEdgeStyle;rounded=0;orthogonalLoop=1;jettySize=auto;html=1;exitX=0.5;exitY=1;exitDx=0;exitDy=0;exitPerimeter=0;entryX=0.5;entryY=0;entryDx=0;entryDy=0;entryPerimeter=0;strokeColor=#0000FF;" edge="1" parent="1" source="ccPn1WkZMxqeKTW8dk22-15" target="ccPn1WkZMxqeKTW8dk22-17">
          <mxGeometry relative="1" as="geometry" />
        </mxCell>
        <mxCell id="ccPn1WkZMxqeKTW8dk22-37" style="edgeStyle=orthogonalEdgeStyle;rounded=0;orthogonalLoop=1;jettySize=auto;html=1;exitX=0.5;exitY=1;exitDx=0;exitDy=0;exitPerimeter=0;entryX=0.463;entryY=-0.021;entryDx=0;entryDy=0;entryPerimeter=0;strokeColor=#0000FF;" edge="1" parent="1" source="ccPn1WkZMxqeKTW8dk22-17" target="ccPn1WkZMxqeKTW8dk22-19">
          <mxGeometry relative="1" as="geometry" />
        </mxCell>
        <mxCell id="ccPn1WkZMxqeKTW8dk22-38" style="edgeStyle=orthogonalEdgeStyle;rounded=0;orthogonalLoop=1;jettySize=auto;html=1;exitX=0.5;exitY=1;exitDx=0;exitDy=0;exitPerimeter=0;entryX=0.5;entryY=0;entryDx=0;entryDy=0;entryPerimeter=0;strokeColor=#0000FF;" edge="1" parent="1" source="ccPn1WkZMxqeKTW8dk22-19" target="ccPn1WkZMxqeKTW8dk22-22">
          <mxGeometry relative="1" as="geometry" />
        </mxCell>
        <mxCell id="ccPn1WkZMxqeKTW8dk22-39" style="edgeStyle=orthogonalEdgeStyle;rounded=0;orthogonalLoop=1;jettySize=auto;html=1;exitX=1;exitY=0.5;exitDx=0;exitDy=0;entryX=1;entryY=0.5;entryDx=0;entryDy=0;entryPerimeter=0;strokeColor=#0000FF;" edge="1" parent="1" source="ccPn1WkZMxqeKTW8dk22-8" target="ccPn1WkZMxqeKTW8dk22-19">
          <mxGeometry relative="1" as="geometry" />
        </mxCell>
        <mxCell id="ccPn1WkZMxqeKTW8dk22-84" value="&lt;br&gt;a, b, c, d, e, f" style="html=1;strokeWidth=2;shape=manualInput;whiteSpace=wrap;rounded=1;size=26;arcSize=11;strokeColor=#0000FF;" vertex="1" parent="1">
          <mxGeometry x="468" y="390" width="100" height="60" as="geometry" />
        </mxCell>
        <mxCell id="ccPn1WkZMxqeKTW8dk22-85" value="a, b, c, d, e, f" style="rounded=1;whiteSpace=wrap;html=1;absoluteArcSize=1;arcSize=14;strokeWidth=2;strokeColor=#0000FF;" vertex="1" parent="1">
          <mxGeometry x="468" y="320" width="100" height="50" as="geometry" />
        </mxCell>
        <mxCell id="ccPn1WkZMxqeKTW8dk22-86" value="Início" style="strokeWidth=2;html=1;shape=mxgraph.flowchart.start_1;whiteSpace=wrap;strokeColor=#0000FF;" vertex="1" parent="1">
          <mxGeometry x="483" y="260" width="70" height="30" as="geometry" />
        </mxCell>
        <mxCell id="ccPn1WkZMxqeKTW8dk22-90" value="sim" style="edgeStyle=orthogonalEdgeStyle;rounded=0;orthogonalLoop=1;jettySize=auto;html=1;exitX=1;exitY=0.5;exitDx=0;exitDy=0;exitPerimeter=0;entryX=0;entryY=0.5;entryDx=0;entryDy=0;strokeColor=#0000FF;" edge="1" source="ccPn1WkZMxqeKTW8dk22-91" target="ccPn1WkZMxqeKTW8dk22-93" parent="1">
          <mxGeometry relative="1" as="geometry" />
        </mxCell>
        <mxCell id="ccPn1WkZMxqeKTW8dk22-91" value="b &amp;gt; a" style="strokeWidth=2;html=1;shape=mxgraph.flowchart.decision;whiteSpace=wrap;strokeColor=#0000FF;" vertex="1" parent="1">
          <mxGeometry x="478.5" y="470" width="79" height="50" as="geometry" />
        </mxCell>
        <mxCell id="ccPn1WkZMxqeKTW8dk22-92" style="edgeStyle=orthogonalEdgeStyle;rounded=0;orthogonalLoop=1;jettySize=auto;html=1;exitX=1;exitY=0.5;exitDx=0;exitDy=0;entryX=1;entryY=0.5;entryDx=0;entryDy=0;entryPerimeter=0;strokeColor=#0000FF;" edge="1" source="ccPn1WkZMxqeKTW8dk22-93" parent="1" target="ccPn1WkZMxqeKTW8dk22-110">
          <mxGeometry relative="1" as="geometry">
            <mxPoint x="689" y="495.19047619047615" as="targetPoint" />
          </mxGeometry>
        </mxCell>
        <mxCell id="ccPn1WkZMxqeKTW8dk22-93" value="a = b" style="rounded=1;whiteSpace=wrap;html=1;absoluteArcSize=1;arcSize=14;strokeWidth=2;strokeColor=#0000FF;" vertex="1" parent="1">
          <mxGeometry x="599" y="480" width="70" height="30" as="geometry" />
        </mxCell>
        <mxCell id="ccPn1WkZMxqeKTW8dk22-94" value="sim" style="edgeStyle=orthogonalEdgeStyle;rounded=0;orthogonalLoop=1;jettySize=auto;html=1;exitX=1;exitY=0.5;exitDx=0;exitDy=0;exitPerimeter=0;entryX=0;entryY=0.5;entryDx=0;entryDy=0;strokeColor=#0000FF;" edge="1" source="ccPn1WkZMxqeKTW8dk22-95" target="ccPn1WkZMxqeKTW8dk22-97" parent="1">
          <mxGeometry relative="1" as="geometry" />
        </mxCell>
        <mxCell id="ccPn1WkZMxqeKTW8dk22-95" value="c &amp;gt; a" style="strokeWidth=2;html=1;shape=mxgraph.flowchart.decision;whiteSpace=wrap;strokeColor=#0000FF;" vertex="1" parent="1">
          <mxGeometry x="478.5" y="540" width="79" height="50" as="geometry" />
        </mxCell>
        <mxCell id="ccPn1WkZMxqeKTW8dk22-96" style="edgeStyle=orthogonalEdgeStyle;rounded=0;orthogonalLoop=1;jettySize=auto;html=1;exitX=1;exitY=0.5;exitDx=0;exitDy=0;strokeColor=#0000FF;" edge="1" source="ccPn1WkZMxqeKTW8dk22-97" parent="1">
          <mxGeometry relative="1" as="geometry">
            <mxPoint x="689" y="565.1904761904761" as="targetPoint" />
          </mxGeometry>
        </mxCell>
        <mxCell id="ccPn1WkZMxqeKTW8dk22-97" value="a = c" style="rounded=1;whiteSpace=wrap;html=1;absoluteArcSize=1;arcSize=14;strokeWidth=2;strokeColor=#0000FF;" vertex="1" parent="1">
          <mxGeometry x="599" y="550" width="70" height="30" as="geometry" />
        </mxCell>
        <mxCell id="ccPn1WkZMxqeKTW8dk22-98" value="sim" style="edgeStyle=orthogonalEdgeStyle;rounded=0;orthogonalLoop=1;jettySize=auto;html=1;exitX=1;exitY=0.5;exitDx=0;exitDy=0;exitPerimeter=0;entryX=0;entryY=0.5;entryDx=0;entryDy=0;strokeColor=#0000FF;" edge="1" source="ccPn1WkZMxqeKTW8dk22-99" target="ccPn1WkZMxqeKTW8dk22-101" parent="1">
          <mxGeometry relative="1" as="geometry" />
        </mxCell>
        <mxCell id="ccPn1WkZMxqeKTW8dk22-99" value="d &amp;gt; a" style="strokeWidth=2;html=1;shape=mxgraph.flowchart.decision;whiteSpace=wrap;strokeColor=#0000FF;" vertex="1" parent="1">
          <mxGeometry x="478.5" y="610" width="79" height="50" as="geometry" />
        </mxCell>
        <mxCell id="ccPn1WkZMxqeKTW8dk22-100" style="edgeStyle=orthogonalEdgeStyle;rounded=0;orthogonalLoop=1;jettySize=auto;html=1;exitX=1;exitY=0.5;exitDx=0;exitDy=0;strokeColor=#0000FF;" edge="1" source="ccPn1WkZMxqeKTW8dk22-101" parent="1">
          <mxGeometry relative="1" as="geometry">
            <mxPoint x="689" y="635.1904761904761" as="targetPoint" />
          </mxGeometry>
        </mxCell>
        <mxCell id="ccPn1WkZMxqeKTW8dk22-101" value="a = d" style="rounded=1;whiteSpace=wrap;html=1;absoluteArcSize=1;arcSize=14;strokeWidth=2;strokeColor=#0000FF;" vertex="1" parent="1">
          <mxGeometry x="599" y="620" width="70" height="30" as="geometry" />
        </mxCell>
        <mxCell id="ccPn1WkZMxqeKTW8dk22-102" value="sim" style="edgeStyle=orthogonalEdgeStyle;rounded=0;orthogonalLoop=1;jettySize=auto;html=1;exitX=1;exitY=0.5;exitDx=0;exitDy=0;exitPerimeter=0;entryX=0;entryY=0.5;entryDx=0;entryDy=0;strokeColor=#0000FF;" edge="1" source="ccPn1WkZMxqeKTW8dk22-103" target="ccPn1WkZMxqeKTW8dk22-105" parent="1">
          <mxGeometry relative="1" as="geometry" />
        </mxCell>
        <mxCell id="ccPn1WkZMxqeKTW8dk22-103" value="e &amp;gt; a" style="strokeWidth=2;html=1;shape=mxgraph.flowchart.decision;whiteSpace=wrap;strokeColor=#0000FF;" vertex="1" parent="1">
          <mxGeometry x="478.5" y="680" width="79" height="50" as="geometry" />
        </mxCell>
        <mxCell id="ccPn1WkZMxqeKTW8dk22-104" style="edgeStyle=orthogonalEdgeStyle;rounded=0;orthogonalLoop=1;jettySize=auto;html=1;exitX=1;exitY=0.5;exitDx=0;exitDy=0;strokeColor=#0000FF;" edge="1" source="ccPn1WkZMxqeKTW8dk22-105" parent="1">
          <mxGeometry relative="1" as="geometry">
            <mxPoint x="689" y="705.1904761904761" as="targetPoint" />
          </mxGeometry>
        </mxCell>
        <mxCell id="ccPn1WkZMxqeKTW8dk22-105" value="a = e" style="rounded=1;whiteSpace=wrap;html=1;absoluteArcSize=1;arcSize=14;strokeWidth=2;strokeColor=#0000FF;" vertex="1" parent="1">
          <mxGeometry x="599" y="690" width="70" height="30" as="geometry" />
        </mxCell>
        <mxCell id="ccPn1WkZMxqeKTW8dk22-106" value="sim" style="edgeStyle=orthogonalEdgeStyle;rounded=0;orthogonalLoop=1;jettySize=auto;html=1;exitX=1;exitY=0.5;exitDx=0;exitDy=0;exitPerimeter=0;entryX=0;entryY=0.5;entryDx=0;entryDy=0;strokeColor=#0000FF;" edge="1" source="ccPn1WkZMxqeKTW8dk22-107" target="ccPn1WkZMxqeKTW8dk22-109" parent="1">
          <mxGeometry relative="1" as="geometry" />
        </mxCell>
        <mxCell id="ccPn1WkZMxqeKTW8dk22-107" value="f &amp;gt; a" style="strokeWidth=2;html=1;shape=mxgraph.flowchart.decision;whiteSpace=wrap;strokeColor=#0000FF;" vertex="1" parent="1">
          <mxGeometry x="478.5" y="750" width="79" height="50" as="geometry" />
        </mxCell>
        <mxCell id="ccPn1WkZMxqeKTW8dk22-108" style="edgeStyle=orthogonalEdgeStyle;rounded=0;orthogonalLoop=1;jettySize=auto;html=1;exitX=1;exitY=0.5;exitDx=0;exitDy=0;strokeColor=#0000FF;" edge="1" source="ccPn1WkZMxqeKTW8dk22-109" parent="1">
          <mxGeometry relative="1" as="geometry">
            <mxPoint x="689" y="775.1904761904761" as="targetPoint" />
          </mxGeometry>
        </mxCell>
        <mxCell id="ccPn1WkZMxqeKTW8dk22-109" value="a = f" style="rounded=1;whiteSpace=wrap;html=1;absoluteArcSize=1;arcSize=14;strokeWidth=2;strokeColor=#0000FF;" vertex="1" parent="1">
          <mxGeometry x="599" y="760" width="70" height="30" as="geometry" />
        </mxCell>
        <mxCell id="ccPn1WkZMxqeKTW8dk22-110" value="&quot;O maior número é %d &quot;, a" style="strokeWidth=2;html=1;shape=mxgraph.flowchart.display;whiteSpace=wrap;strokeColor=#0000FF;" vertex="1" parent="1">
          <mxGeometry x="449" y="820" width="150" height="70" as="geometry" />
        </mxCell>
        <mxCell id="ccPn1WkZMxqeKTW8dk22-111" value="Fim" style="strokeWidth=2;html=1;shape=mxgraph.flowchart.start_1;whiteSpace=wrap;strokeColor=#0000FF;" vertex="1" parent="1">
          <mxGeometry x="498" y="910" width="70" height="30" as="geometry" />
        </mxCell>
        <mxCell id="ccPn1WkZMxqeKTW8dk22-112" style="edgeStyle=orthogonalEdgeStyle;rounded=0;orthogonalLoop=1;jettySize=auto;html=1;exitX=0.5;exitY=1;exitDx=0;exitDy=0;exitPerimeter=0;entryX=0.49;entryY=-0.058;entryDx=0;entryDy=0;entryPerimeter=0;strokeColor=#0000FF;" edge="1" source="ccPn1WkZMxqeKTW8dk22-86" target="ccPn1WkZMxqeKTW8dk22-85" parent="1">
          <mxGeometry relative="1" as="geometry" />
        </mxCell>
        <mxCell id="ccPn1WkZMxqeKTW8dk22-113" style="edgeStyle=orthogonalEdgeStyle;rounded=0;orthogonalLoop=1;jettySize=auto;html=1;exitX=0.5;exitY=1;exitDx=0;exitDy=0;entryX=0.504;entryY=0.213;entryDx=0;entryDy=0;entryPerimeter=0;strokeColor=#0000FF;" edge="1" source="ccPn1WkZMxqeKTW8dk22-85" target="ccPn1WkZMxqeKTW8dk22-84" parent="1">
          <mxGeometry relative="1" as="geometry" />
        </mxCell>
        <mxCell id="ccPn1WkZMxqeKTW8dk22-114" style="edgeStyle=orthogonalEdgeStyle;rounded=0;orthogonalLoop=1;jettySize=auto;html=1;exitX=0.5;exitY=1;exitDx=0;exitDy=0;entryX=0.5;entryY=0;entryDx=0;entryDy=0;entryPerimeter=0;strokeColor=#0000FF;" edge="1" source="ccPn1WkZMxqeKTW8dk22-84" target="ccPn1WkZMxqeKTW8dk22-91" parent="1">
          <mxGeometry relative="1" as="geometry">
            <mxPoint x="519" y="460" as="targetPoint" />
          </mxGeometry>
        </mxCell>
        <mxCell id="ccPn1WkZMxqeKTW8dk22-116" style="edgeStyle=orthogonalEdgeStyle;rounded=0;orthogonalLoop=1;jettySize=auto;html=1;exitX=0.5;exitY=1;exitDx=0;exitDy=0;exitPerimeter=0;entryX=0.5;entryY=0;entryDx=0;entryDy=0;entryPerimeter=0;strokeColor=#0000FF;" edge="1" source="ccPn1WkZMxqeKTW8dk22-91" target="ccPn1WkZMxqeKTW8dk22-95" parent="1">
          <mxGeometry relative="1" as="geometry" />
        </mxCell>
        <mxCell id="ccPn1WkZMxqeKTW8dk22-117" style="edgeStyle=orthogonalEdgeStyle;rounded=0;orthogonalLoop=1;jettySize=auto;html=1;exitX=0.5;exitY=1;exitDx=0;exitDy=0;exitPerimeter=0;entryX=0.5;entryY=0;entryDx=0;entryDy=0;entryPerimeter=0;strokeColor=#0000FF;" edge="1" source="ccPn1WkZMxqeKTW8dk22-95" target="ccPn1WkZMxqeKTW8dk22-99" parent="1">
          <mxGeometry relative="1" as="geometry" />
        </mxCell>
        <mxCell id="ccPn1WkZMxqeKTW8dk22-118" style="edgeStyle=orthogonalEdgeStyle;rounded=0;orthogonalLoop=1;jettySize=auto;html=1;exitX=0.5;exitY=1;exitDx=0;exitDy=0;exitPerimeter=0;entryX=0.5;entryY=0;entryDx=0;entryDy=0;entryPerimeter=0;strokeColor=#0000FF;" edge="1" source="ccPn1WkZMxqeKTW8dk22-99" target="ccPn1WkZMxqeKTW8dk22-103" parent="1">
          <mxGeometry relative="1" as="geometry" />
        </mxCell>
        <mxCell id="ccPn1WkZMxqeKTW8dk22-119" style="edgeStyle=orthogonalEdgeStyle;rounded=0;orthogonalLoop=1;jettySize=auto;html=1;exitX=0.5;exitY=1;exitDx=0;exitDy=0;exitPerimeter=0;entryX=0.5;entryY=0;entryDx=0;entryDy=0;entryPerimeter=0;strokeColor=#0000FF;" edge="1" source="ccPn1WkZMxqeKTW8dk22-103" target="ccPn1WkZMxqeKTW8dk22-107" parent="1">
          <mxGeometry relative="1" as="geometry" />
        </mxCell>
        <mxCell id="ccPn1WkZMxqeKTW8dk22-120" style="edgeStyle=orthogonalEdgeStyle;rounded=0;orthogonalLoop=1;jettySize=auto;html=1;exitX=0.5;exitY=1;exitDx=0;exitDy=0;exitPerimeter=0;entryX=0.463;entryY=-0.021;entryDx=0;entryDy=0;entryPerimeter=0;strokeColor=#0000FF;" edge="1" source="ccPn1WkZMxqeKTW8dk22-107" target="ccPn1WkZMxqeKTW8dk22-110" parent="1">
          <mxGeometry relative="1" as="geometry" />
        </mxCell>
        <mxCell id="ccPn1WkZMxqeKTW8dk22-121" style="edgeStyle=orthogonalEdgeStyle;rounded=0;orthogonalLoop=1;jettySize=auto;html=1;exitX=0.5;exitY=1;exitDx=0;exitDy=0;exitPerimeter=0;entryX=0.5;entryY=0;entryDx=0;entryDy=0;entryPerimeter=0;strokeColor=#0000FF;" edge="1" source="ccPn1WkZMxqeKTW8dk22-110" target="ccPn1WkZMxqeKTW8dk22-111" parent="1">
          <mxGeometry relative="1" as="geometry" />
        </mxCell>
        <mxCell id="ccPn1WkZMxqeKTW8dk22-123" value="Fluxograma para encontrar o maior número entre 6" style="text;html=1;strokeColor=none;fillColor=none;align=center;verticalAlign=middle;whiteSpace=wrap;rounded=0;" vertex="1" parent="1">
          <mxGeometry x="308.5" y="50" width="170" height="50" as="geometry" />
        </mxCell>
        <mxCell id="ccPn1WkZMxqeKTW8dk22-124" value="Solução 1" style="text;html=1;strokeColor=none;fillColor=none;align=center;verticalAlign=middle;whiteSpace=wrap;rounded=0;" vertex="1" parent="1">
          <mxGeometry x="167" y="190" width="82" height="30" as="geometry" />
        </mxCell>
        <mxCell id="ccPn1WkZMxqeKTW8dk22-125" value="Solução 2" style="text;html=1;strokeColor=none;fillColor=none;align=center;verticalAlign=middle;whiteSpace=wrap;rounded=0;" vertex="1" parent="1">
          <mxGeometry x="478.5" y="210" width="82" height="30" as="geometry" />
        </mxCell>
      </root>
    </mxGraphModel>
  </diagram>
</mxfile>
